<?xml version="1.0" standalone="no"?>
<!DOCTYPE svg PUBLIC "-//W3C//DTD SVG 1.1//EN" "http://www.w3.org/Graphics/SVG/1.1/DTD/svg11.dtd" >
<svg xmlns="http://www.w3.org/2000/svg">
<metadata>Generated by IcoMoon</metadata>
<defs>
<font id="genomicons" horiz-adv-x="1024">
<font-face units-per-em="1024" ascent="960" descent="-64" />
<missing-glyph horiz-adv-x="1024" />
<glyph unicode="&#x20;" d="" horiz-adv-x="512" />
<glyph unicode="&#xe600;" d="M461.312 460.8h-154.112v409.6h-153.6v-409.6h-154.061l230.861-399.872 230.912 399.872zM372.582 409.6l-142.182-246.272-142.182 246.272h116.582v409.6h51.2v-409.6h116.582z" horiz-adv-x="461" />
<glyph unicode="&#xe601;" d="M409.6 254.976v154.112h409.6v153.6h-409.6v154.061l-399.872-230.912 399.872-230.861zM358.4 343.654l-246.272 142.182 246.272 142.182v-116.582h409.6v-51.2h-409.6v-116.582z" horiz-adv-x="819" />
<glyph unicode="&#xe602;" d="M809.472 485.837l-399.872 230.912v-154.061h-409.6v-153.6h409.6v-154.112l399.872 230.861zM460.8 460.237h-409.6v51.2h409.6v116.582l246.272-142.182-246.272-142.182v116.582z" horiz-adv-x="819" />
<glyph unicode="&#xe603;" d="M230.4 860.672l-230.861-399.872h154.061v-409.6h153.6v409.6h154.112l-230.912 399.872zM256 512v-409.6h-51.2v409.6h-116.582l142.182 246.272 142.182-246.272h-116.582z" horiz-adv-x="461" />
<glyph unicode="&#xe604;" d="M512 460.8c0-28.277-22.923-51.2-51.2-51.2s-51.2 22.923-51.2 51.2c0 28.277 22.923 51.2 51.2 51.2s51.2-22.923 51.2-51.2zM921.6 460.8c0 68.403-68.352 126.771-177.51 163.533 22.733 112.947 6.349 201.318-52.89 235.52-16.077 9.318-34.509 14.029-54.682 14.029-52.070 0-113.664-31.386-175.718-86.067-62.003 54.682-123.597 86.067-175.667 86.067-20.224 0-38.605-4.71-54.733-14.029-59.238-34.202-75.622-122.573-52.89-235.52-109.158-36.762-177.51-95.13-177.51-163.533s68.352-126.771 177.51-163.533c-22.733-112.896-6.349-201.267 52.89-235.52 16.077-9.37 34.509-14.029 54.733-14.029 52.070 0 113.664 31.386 175.667 86.067 62.003-54.682 123.597-86.067 175.616-86.067 0.051 0 0.051 0 0.051 0 20.224 0 38.605 4.71 54.682 14.029 59.238 34.202 75.622 122.573 52.89 235.469 109.21 36.813 177.562 95.181 177.562 163.584zM665.6 815.514c34.816-20.122 45.926-86.221 28.57-176.589-36.352 9.114-76.134 16.026-118.528 20.531-25.139 34.458-51.302 65.434-77.67 92.621 53.862 46.592 103.168 70.656 138.547 70.656 11.213-0.051 20.736-2.406 29.082-7.219zM660.275 398.643c8.653-22.682 15.872-44.595 21.811-65.638-21.197-5.376-43.776-10.086-67.789-13.926 8.090 12.8 16.077 25.856 23.859 39.27 7.782 13.517 15.104 26.931 22.118 40.294zM593.869 384c-15.104-26.163-30.618-50.534-46.336-73.216-27.648-2.304-56.627-3.584-86.733-3.584-29.952 0-58.829 1.28-86.323 3.584-15.821 22.784-31.488 46.899-46.694 73.216-15.053 26.061-28.416 51.712-40.192 76.8 11.776 25.088 25.139 50.739 40.192 76.8 15.206 26.317 30.874 50.432 46.694 73.216 27.494 2.304 56.371 3.584 86.323 3.584 30.003 0 58.829-1.28 86.374-3.584 15.821-22.784 31.488-46.899 46.694-73.216 15.053-26.061 28.416-51.712 40.192-76.8-11.827-25.088-25.19-50.739-40.192-76.8zM414.566 256.973c15.206-0.614 30.566-0.973 46.234-0.973 15.718 0 31.13 0.358 46.336 0.973-15.411-19.098-30.822-36.506-46.080-52.224-15.36 15.821-30.874 32.973-46.49 52.224zM283.443 358.4c7.782-13.466 15.77-26.522 23.859-39.27-24.013 3.84-46.592 8.55-67.789 13.926 5.888 21.043 13.158 42.906 21.811 65.587 7.014-13.363 14.336-26.778 22.118-40.243zM261.325 522.957c-8.653 22.682-15.872 44.595-21.811 65.587 21.197 5.376 43.776 10.086 67.789 13.926-8.090-12.749-16.128-25.805-23.859-39.27-7.782-13.466-15.104-26.88-22.118-40.243zM460.8 716.595c15.309-15.718 30.72-32.819 46.234-51.968-15.155 0.614-30.566 0.973-46.234 0.973s-31.078-0.358-46.234-0.973c15.514 19.098 30.925 36.25 46.234 51.968zM638.157 563.2c-7.782 13.466-15.77 26.522-23.859 39.27 24.013-3.84 46.643-8.55 67.789-13.926-5.888-21.043-13.158-42.957-21.811-65.638-7.014 13.414-14.336 26.829-22.118 40.294zM256 815.514c8.346 4.813 17.869 7.168 29.133 7.168 35.328 0 84.634-24.064 138.496-70.656-26.368-27.136-52.531-58.112-77.67-92.57-42.445-4.506-82.176-11.418-118.579-20.531-17.357 90.368-6.195 156.518 28.621 176.589zM51.2 460.8c0 40.192 51.712 82.893 138.65 113.050 10.291-36.096 24.218-74.035 41.523-113.050-17.357-39.014-31.283-76.954-41.574-113.050-86.886 30.157-138.598 72.858-138.598 113.050zM256 106.035c-34.816 20.122-45.978 86.221-28.621 176.589 36.352-9.114 76.134-16.026 118.579-20.531 25.242-34.611 51.507-65.638 77.978-92.928-70.605-61.133-133.427-82.944-167.936-63.13zM665.6 106.035c-8.346-4.813-17.869-7.168-29.082-7.168-35.328 0-84.685 24.064-138.496 70.656 26.368 27.187 52.531 58.112 77.67 92.621 42.394 4.506 82.176 11.418 118.528 20.531 17.306-90.368 6.195-156.518-28.621-176.64zM731.75 347.75c-10.291 36.096-24.218 74.035-41.574 113.050 17.357 39.014 31.283 76.954 41.574 113.050 86.938-30.157 138.65-72.858 138.65-113.050s-51.712-82.893-138.65-113.050z" horiz-adv-x="922" />
<glyph unicode="&#xe605;" d="M870.4 819.2v51.2h-204.8v-51.2h-81.869c-39.731 0-74.803-19.302-97.28-48.691-22.477 29.389-57.549 48.691-97.28 48.691h-389.171v-768h389.171c48.742 0 71.629-51.2 71.629-51.2h51.2c0 0 32.154 51.2 71.731 51.2h389.069v768h-102.4zM716.8 819.2h102.4v-216.115l-51.2 55.45-51.2-55.45v216.115zM389.171 102.4h-337.971v665.6h337.971c39.475 0 71.629-32.154 71.629-71.629v-618.24c-20.173 14.848-44.646 24.269-71.629 24.269zM583.731 102.4c-27.034 0-51.558-9.421-71.731-24.371v618.189c0 39.578 32.154 71.782 71.731 71.782h81.869v-295.885l102.4 110.95 102.4-110.95v295.885h51.2v-665.6h-337.869z" horiz-adv-x="973" />
<glyph unicode="&#xe606;" d="M742.4 665.6h-179.2v76.8c0 42.342-34.458 76.8-76.8 76.8h-153.6c-42.342 0-76.8-34.458-76.8-76.8v-76.8h-179.2c-42.342 0-76.8-34.458-76.8-76.8v-409.6c0-42.342 34.458-76.8 76.8-76.8h665.6c42.342 0 76.8 34.458 76.8 76.8v409.6c0 42.342-34.458 76.8-76.8 76.8zM307.2 742.4c0 14.131 11.469 25.6 25.6 25.6h153.6c14.080 0 25.6-11.469 25.6-25.6v-76.8h-204.8v76.8zM768 179.2c0-14.080-11.52-25.6-25.6-25.6h-665.6c-14.131 0-25.6 11.52-25.6 25.6v281.6h716.8v-281.6zM768 512h-716.8v76.8c0 14.131 11.469 25.6 25.6 25.6h665.6c14.080 0 25.6-11.469 25.6-25.6v-76.8z" horiz-adv-x="819" />
<glyph unicode="&#xe607;" d="M819.2 512v76.8c0 42.342-34.458 76.8-76.8 76.8h-179.2v76.8c0 42.342-34.458 76.8-76.8 76.8h-153.6c-42.342 0-76.8-34.458-76.8-76.8v-76.8h-179.2c-42.342 0-76.8-34.458-76.8-76.8v-76.8h819.2zM307.2 742.4c0 14.131 11.469 25.6 25.6 25.6h153.6c14.080 0 25.6-11.469 25.6-25.6v-76.8h-204.8v76.8zM0 460.8v-281.6c0-42.342 34.458-76.8 76.8-76.8h665.6c42.342 0 76.8 34.458 76.8 76.8v281.6h-819.2z" horiz-adv-x="819" />
<glyph unicode="&#xe608;" d="M358.4 870.4c-197.632 0-358.4-160.768-358.4-358.4v-51.2h67.635l91.034-409.6h399.462l90.982 409.6h67.686v51.2c0 197.632-160.819 358.4-358.4 358.4zM517.069 102.4h-317.338l-90.982 409.6h499.354l-91.034-409.6zM55.808 563.2c24.525 145.050 150.682 256 302.592 256s278.067-110.95 302.592-256h-605.184zM102.4 460.8h512v-51.2h-512v51.2zM153.6 204.8h409.6v-51.2h-409.6v51.2z" horiz-adv-x="717" />
<glyph unicode="&#xe609;" d="M870.4 665.6v102.4h-102.4v153.6h-51.2v-153.6h-102.4v-102.4h-51.2v-153.6h-256v153.6h-51.2v153.6h-204.8v-153.6h-51.2v-665.6h921.6v665.6h-51.2zM665.6 716.8h153.6v-51.2h-153.6v51.2zM102.4 768h102.4v-102.4h-102.4v102.4zM256 51.2h-204.8v563.2h204.8v-563.2zM563.2 51.2h-256v409.6h256v-409.6zM870.4 51.2h-256v563.2h256v-563.2zM102.4 563.2h102.4v-51.2h-102.4v51.2zM102.4 409.6h102.4v-51.2h-102.4v51.2zM358.4 409.6h153.6v-51.2h-153.6v51.2zM358.4 307.2h153.6v-51.2h-153.6v51.2zM358.4 204.8h153.6v-51.2h-153.6v51.2zM102.4 256h102.4v-51.2h-102.4v51.2zM665.6 563.2h153.6v-51.2h-153.6v51.2zM665.6 460.8h153.6v-51.2h-153.6v51.2zM665.6 358.4h153.6v-51.2h-153.6v51.2zM665.6 256h153.6v-51.2h-153.6v51.2z" horiz-adv-x="922" />
<glyph unicode="&#xe60a;" d="M435.2 0c-239.974 0-435.2 195.226-435.2 435.2s195.226 435.2 435.2 435.2c239.974 0 435.2-195.226 435.2-435.2s-195.226-435.2-435.2-435.2zM435.2 819.2c-211.763 0-384-172.237-384-384s172.237-384 384-384 384 172.237 384 384-172.237 384-384 384zM204.8 460.8h460.8v-51.2h-460.8v51.2z" horiz-adv-x="870" />
<glyph unicode="&#xe60b;" d="M231.629 307.2c-12.339 0-23.859 4.864-32.461 13.722l-160.717 165.376c-12.749 13.107-16.333 32.461-9.216 49.254 7.066 16.794 23.45 27.648 41.728 27.648h321.382c18.176 0 34.611-10.854 41.677-27.648s3.533-36.096-9.165-49.203l-160.768-165.427c-8.55-8.858-20.070-13.722-32.461-13.722zM84.89 512l146.79-151.040 146.79 151.040h-293.581z" horiz-adv-x="461" />
<glyph unicode="&#xe60c;" d="M257.024 621.517v-321.382c0-18.227-10.854-34.611-27.648-41.728s-36.147-3.482-49.203 9.216l-165.376 160.768c-17.715 17.152-17.766 47.77 0.051 64.973l165.325 160.717c13.158 12.749 32.461 16.282 49.254 9.216 16.742-7.168 27.597-23.603 27.597-41.779zM205.824 314.061v293.53l-151.040-146.79 151.040-146.739z" horiz-adv-x="256" />
<glyph unicode="&#xe60d;" d="M1.434 300.083v321.382c0 18.227 10.854 34.611 27.648 41.728s36.147 3.482 49.203-9.216l165.376-160.768c17.715-17.152 17.766-47.77-0.051-64.973l-165.274-160.666c-13.158-12.749-32.461-16.282-49.254-9.216-16.794 7.117-27.648 23.552-27.648 41.728zM52.634 607.539v-293.581l151.040 146.842-151.040 146.739z" horiz-adv-x="256" />
<glyph unicode="&#xe60e;" d="M392.346 358.4h-321.382c-18.227 0-34.611 10.854-41.728 27.648s-3.482 36.147 9.216 49.203l160.768 165.376c17.152 17.715 47.77 17.766 64.973-0.051l160.717-165.325c12.749-13.158 16.282-32.461 9.216-49.254-7.168-16.742-23.552-27.597-41.779-27.597zM84.89 409.6h293.581l-146.842 151.040-146.739-151.040z" horiz-adv-x="461" />
<glyph unicode="&#xe60f;" d="M235.52 245.76l-194.56 194.56 35.84 35.84 158.72-158.72 332.8 337.92 35.84-40.96z" horiz-adv-x="614" />
<glyph unicode="&#xe610;" d="M358.4 273.562l-325.837 325.837-36.198-36.198 362.035-362.035 362.035 362.035-36.198 36.198z" horiz-adv-x="717" />
<glyph unicode="&#xe611;" d="M68.762 460.8l325.837 325.837-36.198 36.198-362.035-362.035 362.035-362.035 36.198 36.198z" horiz-adv-x="410" />
<glyph unicode="&#xe612;" d="M340.838 460.8l-325.837-325.837 36.198-36.198 362.035 362.035-362.035 362.035-36.198-36.198z" horiz-adv-x="410" />
<glyph unicode="&#xe613;" d="M358.4 648.038l325.837-325.837 36.198 36.198-362.035 362.035-362.035-362.035 36.198-36.198z" horiz-adv-x="717" />
<glyph unicode="&#xe614;" d="M512 819.2h102.4v-716.8h-102.4v716.8zM0 819.2h102.4v-716.8h-102.4v716.8zM256 819.2h102.4v-716.8h-102.4v716.8z" horiz-adv-x="614" />
<glyph unicode="&#xe615;" d="M0 768v-563.2h819.2v563.2h-819.2zM279.296 440.115l130.304-86.886 133.274 88.832 192.41-186.061h-646.4l190.413 184.115zM51.2 290.765v301.414l184.525-122.982-184.525-178.432zM586.445 471.142l181.555 121.037v-296.602l-181.555 175.565zM768 716.8v-63.078l-358.4-238.95-358.4 238.95v63.078h716.8z" horiz-adv-x="819" />
<glyph unicode="&#xe616;" d="M731.802 819.2l-391.117-391.117 36.198-36.198 391.117 391.117v-219.802h51.2v307.2h-307.2v-51.2zM716.8 460.8v-204.8h-512v512h204.8v51.2h-256v-153.6h-153.6v-614.4h614.4v153.6h153.6v256h-51.2zM563.2 102.4h-512v512h102.4v-409.6h409.6v-102.4z" horiz-adv-x="819" />
<glyph unicode="&#xe617;" d="M918.733 472.525c-5.069 9.933-129.382 244.275-457.933 244.275s-452.813-234.342-457.984-244.326l-6.144-11.93 6.4-11.878c5.325-9.933 134.707-243.866 457.728-243.866s452.403 233.933 457.728 243.917l6.349 11.878-6.144 11.93zM460.8 256c-254.72 0-375.706 158.925-405.402 204.902 20.378 31.898 86.221 120.371 213.094 169.933-0.102-0.256-0.154-0.512-0.205-0.717 0.154 0.256 0.205 0.563 0.358 0.768 29.235 11.418 61.542 20.736 97.485 26.829 25.651-12.442 43.469-38.502 43.469-68.915 0-42.394-34.406-76.8-76.8-76.8-38.144 0-69.581 27.904-75.52 64.358-0.358-4.403-1.28-8.653-1.28-13.158 0-112.947 91.853-204.8 204.8-204.8s204.8 91.853 204.8 204.8c0 24.064-4.71 46.848-12.595 68.198 127.642-49.203 192.819-137.677 213.197-170.24-29.747-45.21-152.781-205.158-405.402-205.158z" horiz-adv-x="922" />
<glyph unicode="&#xe618;" d="M460.8 307.2c-84.685 0-153.6 68.915-153.6 153.6s68.915 153.6 153.6 153.6 153.6-68.915 153.6-153.6-68.915-153.6-153.6-153.6zM460.8 563.2c-56.474 0-102.4-45.926-102.4-102.4s45.926-102.4 102.4-102.4c56.474 0 102.4 45.926 102.4 102.4s-45.926 102.4-102.4 102.4zM460.8 202.394c-318.566 0-454.298 235.827-459.93 245.914l-7.014 12.442 6.963 12.493c5.581 10.035 140.288 245.965 459.981 245.965 319.642 0 454.4-235.93 459.981-245.965l6.912-12.493-6.963-12.442c-5.632-10.035-141.363-245.914-459.93-245.914zM53.35 460.851c31.334-47.002 156.621-207.258 407.45-207.258 248.525 0 375.859 160.973 407.398 207.36-31.283 47.155-155.955 207.053-407.398 207.053-251.699 0-376.32-160.154-407.45-207.155z" horiz-adv-x="922" />
<glyph unicode="&#xe619;" d="M920.781 473.242c-5.581 10.035-140.339 245.965-459.981 245.965-319.693 0-454.4-235.93-459.981-245.965l-6.963-12.493 7.014-12.442c5.632-10.035 141.363-245.914 459.93-245.914s454.298 235.827 459.93 245.914l6.963 12.442-6.912 12.493zM460.8 307.2c-84.685 0-153.6 68.915-153.6 153.6s68.915 153.6 153.6 153.6 153.6-68.915 153.6-153.6-68.915-153.6-153.6-153.6z" horiz-adv-x="922" />
<glyph unicode="&#xe61a;" d="M918.733 472.525c-5.069 9.933-129.382 244.275-457.933 244.275s-452.813-234.342-457.984-244.326l-6.144-11.93 6.4-11.878c5.325-9.933 134.707-243.866 457.728-243.866s452.403 233.933 457.728 243.917l6.349 11.878-6.144 11.93zM460.8 358.4c-112.947 0-204.8 91.853-204.8 204.8 0 23.706 4.659 46.182 12.339 67.226 29.389 11.571 62.259 20.736 98.304 26.931-0.102 0.051-0.154 0.102-0.205 0.154 4.147 0.717 8.602 1.024 12.851 1.69 10.189 1.485 20.275 3.123 31.027 4.045 16.179 1.485 32.922 2.355 50.432 2.355h0.102c17.51 0 34.253-0.87 50.483-2.355 10.752-0.922 20.787-2.56 30.976-4.045 4.198-0.614 8.704-0.973 12.851-1.69-0.051-0.051-0.102-0.102-0.205-0.154 35.994-6.195 68.915-15.36 98.304-26.931 7.68-21.043 12.339-43.52 12.339-67.226 0-112.947-91.853-204.8-204.8-204.8z" horiz-adv-x="922" />
<glyph unicode="&#xe61b;" d="M522.598 921.6h-522.598v-921.6h716.8v727.398l-194.202 194.202zM655.002 716.8h-143.002v143.002l143.002-143.002zM51.2 51.2v819.2h409.6v-204.8h204.8v-614.4h-614.4z" horiz-adv-x="717" />
<glyph unicode="&#xe61c;" d="M460.8 665.6v256h-460.8v-921.6h716.8v665.6zM512 716.8h204.8v10.598l-194.202 194.202h-10.598z" horiz-adv-x="717" />
<glyph unicode="&#xe61d;" d="M153.6 102.4h-102.4v819.2h409.6v-204.8h204.8v-102.093l51.2-0.307v164.198l-194.202 194.202h-522.598v-921.6h153.6v51.2zM512 911.002l143.002-143.002h-143.002v143.002zM864 112.179l-245.453-141.517 0.154 283.341 77.21-44.646c22.17 80.64-8.038 167.27-84.224 211.302-25.805 14.899-54.579 23.859-84.122 25.805l3.686 77.466c41.421-2.765 77.978-13.158 114.022-33.997 113.152-65.382 156.16-198.656 114.022-317.235l104.704-60.518zM159.693 400.384l245.453 141.517-0.154-283.341-77.21 44.646c-22.17-80.64 8.038-167.27 84.224-211.302 25.805-14.899 54.579-23.859 84.122-25.805l-3.686-77.466c-41.421 2.765-77.978 13.158-114.022 33.997-113.152 65.382-156.16 198.656-114.022 317.235l-104.704 60.518z" horiz-adv-x="870" />
<glyph unicode="&#xe61e;" d="M153.6 716.8h204.8v-51.2h-204.8v51.2zM153.6 563.2h409.6v-51.2h-409.6v51.2zM153.6 409.6h409.6v-51.2h-409.6v51.2zM153.6 256h409.6v-51.2h-409.6v51.2zM522.598 921.6h-522.598v-921.6h716.8v727.398l-194.202 194.202zM655.002 716.8h-143.002v143.002l143.002-143.002zM51.2 51.2v819.2h409.6v-204.8h204.8v-614.4h-614.4z" horiz-adv-x="717" />
<glyph unicode="&#xe61f;" d="M522.598 921.6h-10.598v-204.8h204.8v10.598zM460.8 921.6h-460.8v-921.6h716.8v665.6h-256v256zM153.6 716.8h204.8v-51.2h-204.8v51.2zM563.2 204.8h-409.6v51.2h409.6v-51.2zM563.2 358.4h-409.6v51.2h409.6v-51.2zM563.2 563.2v-51.2h-409.6v51.2h409.6z" horiz-adv-x="717" />
<glyph unicode="&#xe620;" d="M665.6 716.8v-51.2h51.2v112.998l-194.202 194.202h-522.598v-921.6h204.8l-0.051 51.2h-153.549v819.2h409.6v-204.8h204.8zM512 911.002l143.002-143.002h-143.002v143.002zM153.6 768h204.8v-51.2h-204.8v51.2zM870.4-15.002l-212.275 212.275c36.096 44.186 58.675 99.789 58.675 161.126 0 141.158-114.842 256-256 256-7.322 0-14.234-1.536-21.453-2.15 0 0.717-0.051 1.434-0.102 2.15h-285.645v-51.2h155.187c-35.533-26.47-64.256-61.389-82.278-102.4h-72.909v-51.2h56.371c-3.379-16.538-5.171-33.69-5.171-51.2 0-17.664 1.792-34.97 5.222-51.61l-56.422 0.41v-51.2h72.909c39.629-90.266 129.587-153.6 234.291-153.6 61.338 0 116.941 22.579 161.075 58.675l212.326-212.275 36.198 36.198zM256 358.4c0 112.947 91.853 204.8 204.8 204.8s204.8-91.853 204.8-204.8c0-112.947-91.853-204.8-204.8-204.8s-204.8 91.853-204.8 204.8z" horiz-adv-x="870" />
<glyph unicode="&#xe621;" d="M460.8 17.869l-153.6 230.4v225.229l-307.2 396.902h768l-307.2-396.902v-455.629zM358.4 263.731l51.2-76.8v304.128l254.925 328.141h-561.050l254.925-328.141v-227.328z" horiz-adv-x="768" />
<glyph unicode="&#xe622;" d="M460.8 17.869l-153.6 230.4v225.229l-307.2 396.902h768l-307.2-396.902v-455.629z" horiz-adv-x="768" />
<glyph unicode="&#xe623;" d="M409.6 51.2c-225.843 0-409.6 183.757-409.6 409.6s183.757 409.6 409.6 409.6 409.6-183.757 409.6-409.6-183.757-409.6-409.6-409.6zM409.6 819.2c-197.632 0-358.4-160.768-358.4-358.4 0-197.581 160.768-358.4 358.4-358.4 197.581 0 358.4 160.819 358.4 358.4 0 197.632-160.819 358.4-358.4 358.4zM614.4 512h-153.6v153.6h-102.4v-153.6h-153.6v-102.4h153.6v-153.6h102.4v153.6h153.6z" horiz-adv-x="819" />
<glyph unicode="&#xe624;" d="M409.6 870.4c-225.843 0-409.6-183.757-409.6-409.6s183.757-409.6 409.6-409.6 409.6 183.757 409.6 409.6-183.757 409.6-409.6 409.6zM614.4 409.6h-153.6v-153.6h-102.4v153.6h-153.6v102.4h153.6v153.6h102.4v-153.6h153.6v-102.4z" horiz-adv-x="819" />
<glyph unicode="&#xe625;" d="M809.984 148.634c-50.586 77.875-297.984 500.122-297.984 500.122v118.886l49.92 49.92-1.638 1.638h2.918v51.2h-307.2v-51.2h2.918l-1.638-1.638 49.92-49.92v-118.835c0 0-245.76-419.174-298.547-500.838-46.131-71.424 25.805-96.768 68.147-96.768h665.6c42.342 0 108.134 35.021 67.584 97.434zM742.4 102.4h-665.6c-11.571 0-29.338 7.373-15.155 30.208 13.312 21.504 296.755 498.637 296.755 498.637v157.594l-30.362 30.362h163.123l-30.362-30.362v-157.594c0 0 45.773-77.107 101.171-170.445h-152.371v-51.2h182.784c10.138-17.050 20.275-34.099 30.413-51.2h-161.997v-51.2h192.41c10.547-17.715 20.787-35.021 30.464-51.2h-171.674v-51.2h202.189c24.218-40.653 41.011-68.71 42.803-71.424 20.122-30.566-3.021-30.976-14.592-30.976z" horiz-adv-x="819" />
<glyph unicode="&#xe626;" d="M809.984 148.634c-50.586 77.875-297.984 500.122-297.984 500.122v118.886l49.92 49.92-1.638 1.638h2.918v51.2h-307.2v-51.2h2.918l-1.638-1.638 49.92-49.92v-118.835c0 0-245.76-419.174-298.547-500.838-46.131-71.424 25.805-96.768 68.147-96.768h665.6c42.342 0 108.134 35.021 67.584 97.434zM742.4 102.4h-665.6c-11.571 0-29.338 7.373-15.155 30.208 7.014 11.315 88.986 149.094 165.069 276.992h365.722c10.138-17.050 20.275-34.099 30.413-51.2h-162.048v-51.2h192.41c10.547-17.715 20.787-35.021 30.464-51.2h-171.674v-51.2h202.189c24.218-40.653 41.011-68.71 42.803-71.424 20.122-30.566-3.021-30.976-14.592-30.976z" horiz-adv-x="819" />
<glyph unicode="&#xe627;" d="M809.984 148.634c-50.586 77.875-297.984 500.122-297.984 500.122v118.886l49.92 49.92-1.638 1.638h2.918v51.2h-307.2v-51.2h2.918l-1.638-1.638 49.92-49.92v-118.835c0 0-245.76-419.174-298.547-500.838-46.131-71.424 25.805-96.768 68.147-96.768h665.6c42.342 0 108.134 35.021 67.584 97.434zM358.4 631.245v157.594l-30.362 30.362h163.123l-30.362-30.362v-157.594c0 0 45.773-77.107 101.171-170.445h-304.845c55.501 93.338 101.274 170.445 101.274 170.445zM460.8 358.4h153.6v-51.2h-153.6v51.2zM665.6 204.8v0h-153.6v51.2h153.6v-51.2z" horiz-adv-x="819" />
<glyph unicode="&#xe628;" d="M809.984 148.634c-50.586 77.875-297.984 500.122-297.984 500.122v118.886l49.92 49.92-1.638 1.638h2.918v51.2h-307.2v-51.2h2.918l-1.638-1.638 49.92-49.92v-118.835c0 0-245.76-419.174-298.547-500.838-46.131-71.424 25.805-96.768 68.147-96.768h665.6c42.342 0 108.134 35.021 67.584 97.434zM742.4 102.4h-665.6c-11.571 0-29.338 7.373-15.155 30.208 13.312 21.504 296.755 498.637 296.755 498.637v157.594l-30.362 30.362h163.123l-30.362-30.362v-157.594c0 0 294.349-495.104 296.192-497.869 20.122-30.566-3.021-30.976-14.592-30.976zM563.2 358.4h-102.4v102.4h-102.4v-102.4h-102.4v-102.4h102.4v-102.4h102.4v102.4h102.4z" horiz-adv-x="819" />
<glyph unicode="&#xe629;" d="M809.984 148.634c-50.586 77.875-297.984 500.122-297.984 500.122v118.886l49.92 49.92-1.638 1.638h2.918v51.2h-307.2v-51.2h2.918l-1.638-1.638 49.92-49.92v-118.835c0 0-245.76-419.174-298.547-500.838-46.131-71.424 25.805-96.768 68.147-96.768h665.6c42.342 0 108.134 35.021 67.584 97.434zM563.2 256h-102.4v-102.4h-102.4v102.4h-102.4v102.4h102.4v102.4h102.4v-102.4h102.4v-102.4z" horiz-adv-x="819" />
<glyph unicode="&#xe62a;" d="M813.107 148.634c-50.586 77.875-301.107 500.122-301.107 500.122v118.886l51.2 51.558v51.2h-307.2v-51.2l51.2-51.558v-118.835c0 0-242.637-419.174-295.424-500.838-46.131-71.424 28.928-96.768 71.27-96.768h665.6c42.342 0 105.011 35.021 64.461 97.434zM358.4 631.245v157.594l-24.115 30.362h163.123l-36.608-30.362v-157.594c0 0 51.968-77.107 107.418-170.445h-304.896c55.501 93.338 95.078 170.445 95.078 170.445zM460.8 358.4h153.6v-51.2h-153.6v51.2zM665.6 204.8v0h-153.6v51.2h153.6v-51.2zM665.6 768v-51.2l51.2-51.558v-274.074c17.357-28.979 136.602-222.669 147.507-242.483s12.8-40.192 12.8-40.192c-0.563-13.517-4.301-47.667-42.701-57.242 0 0 15.974-1.382 36.045 2.048 58.266 9.83 102.349 61.594 102.349 122.675v489.267l51.2 51.558v51.2h-358.4zM921.6 563.2h-153.6v123.238l-24.115 30.362h214.323l-36.608-30.362v-123.238z" />
<glyph unicode="&#xe62b;" d="M819.2 460.8c0 78.387-22.426 130.253-22.426 130.253l-98.867-26.47c-12.595 34.662-30.976 66.406-54.426 94.003l72.704 72.704c-49.869 54.323-167.117 119.45-225.69 130.509l-26.573-99.123c-17.613 3.174-35.686 5.325-54.323 5.325s-36.608-2.253-54.272-5.581l-26.47 98.816c-101.632-30.054-184.576-85.862-225.126-130.765l72.141-72.141c-23.142-27.699-41.523-59.29-53.862-94.003l-100.198 26.88c0 0-21.811-40.806-21.811-130.406s22.528-130.253 22.528-130.253l98.611 26.419c12.595-34.611 31.283-66.15 54.733-93.696l-72.858-72.858c54.579-56.013 140.902-109.21 225.741-130.202l26.419 98.662c17.715-3.277 35.789-5.274 54.426-5.274s36.659 2.304 54.272 5.734l26.522-99.123c83.2 18.995 153.446 61.901 225.126 130.867l-72.96 72.96c23.194 27.443 41.523 58.931 54.067 93.389l100.557-26.931c0-0.051 22.016 54.323 22.016 130.304zM319.13 222.157l-26.368-98.509c-43.162 15.206-82.227 38.451-116.122 67.994l71.987 71.987c0 0-91.29 74.394-90.829 156.211l-98.765-26.47c-4.557 21.862-7.834 44.186-7.834 67.43s3.328 45.568 7.885 67.43l99.174-26.573c6.554 63.13 37.939 114.586 90.675 156.058l-71.782 71.731c33.741 29.645 72.448 53.35 115.61 68.608l26.522-99.072c0 0.051 28.723 17.818 90.317 17.818s90.47-17.357 90.47-17.357l26.624 99.226c43.315-15.206 82.586-38.4 116.48-68.045l-72.96-73.011c41.779-35.994 87.45-102.144 91.034-155.853l98.97 26.522c4.557-21.914 7.782-44.237 7.782-67.482 0-23.194-2.918-45.619-7.168-67.584l-100.403 26.88c-4.403-58.522-53.658-126.464-90.214-156.109l72.755-72.755c-33.894-29.645-73.114-52.941-116.326-68.147l-26.675 99.635c0 0-38.246-17.92-90.266-17.92s-90.573 17.357-90.573 17.357zM409.6 307.2c-84.685 0-153.6 68.915-153.6 153.6s68.915 153.6 153.6 153.6 153.6-68.915 153.6-153.6-68.915-153.6-153.6-153.6zM409.6 563.2c-56.474 0-102.4-45.926-102.4-102.4s45.926-102.4 102.4-102.4c56.474 0 102.4 45.926 102.4 102.4s-45.926 102.4-102.4 102.4z" horiz-adv-x="819" />
<glyph unicode="&#xe62c;" d="M798.72 332.8c0 0 20.48 56.32 20.48 128 0 76.8-20.48 128-20.48 128l-102.4-25.6c-10.24 35.84-30.72 66.56-56.32 92.16l76.8 76.8c-51.2 56.32-168.96 117.76-225.28 128l-25.6-97.28c-20.48 5.12-35.84 5.12-56.32 5.12s-35.84 0-56.32-5.12l-25.6 97.28c-102.4-30.72-184.32-87.040-225.28-128l71.68-71.68c-20.48-30.72-40.96-61.44-51.2-97.28l-102.4 25.6c0 0-20.48-40.96-20.48-128s20.48-128 20.48-128l102.4 25.6c10.24-35.84 30.72-66.56 56.32-92.16l-76.8-76.8c56.32-56.32 143.36-107.52 225.28-128l25.6 97.28c20.48-5.12 35.84-5.12 56.32-5.12s35.84 0 56.32 5.12l25.6-97.28c81.92 20.48 153.6 61.44 225.28 133.12l-71.68 71.68c25.6 25.6 40.96 61.44 56.32 92.16l97.28-25.6zM409.6 307.2c-87.040 0-153.6 66.56-153.6 153.6s66.56 153.6 153.6 153.6 153.6-66.56 153.6-153.6-66.56-153.6-153.6-153.6z" horiz-adv-x="819" />
<glyph unicode="&#xe62d;" d="M706.56 481.28l143.36 143.36-35.84 35.84-35.84-35.84-179.2 179.2 35.84 35.84-35.84 35.84-143.36-143.36c-61.44-56.32-56.32-148.48-51.2-245.76-92.16 10.24-184.32 10.24-240.64-46.080l-143.36-143.36 35.84-35.84 35.84 35.84 179.2-179.2-35.84-35.84 35.84-35.84 143.36 143.36c56.32 56.32 56.32 148.48 46.080 240.64 97.28-5.12 189.44-10.24 245.76 51.2zM563.2 768l179.2-179.2-35.84-35.84-179.2 179.2 35.84 35.84zM670.72 517.12c-10.24-10.24-30.72-20.48-46.080-25.6l-158.72 158.72c5.12 20.48 15.36 35.84 25.6 46.080l179.2-179.2zM307.2 153.6l-179.2 179.2 35.84 35.84 179.2-179.2-35.84-35.84zM199.68 404.48c10.24 10.24 30.72 20.48 46.080 25.6l158.72-158.72c-5.12-20.48-15.36-35.84-25.6-46.080l-179.2 179.2zM414.72 337.92l-107.52 107.52c30.72 0 66.56 0 102.4-5.12 5.12-35.84 5.12-71.68 5.12-102.4zM460.8 486.4c-5.12 35.84-5.12 71.68-5.12 102.4l107.52-107.52c-35.84 0-71.68 0-102.4 5.12z" horiz-adv-x="870" />
<glyph unicode="&#xe62e;" d="M985.498 586.086l-462.080 332.8-10.803 6.707-10.752-6.707-462.080-332.8c0 0-20.070-16.794-8.602-38.912 10.394-20.019 31.437-6.912 31.437-6.912l39.782 28.928v-569.19h307.2v384c0 14.080 11.469 25.6 25.6 25.6h153.6c14.080 0 25.6-11.52 25.6-25.6v-384h307.2v570.163l41.114-29.85c0 0 18.483-12.339 32.358 6.861s-9.574 38.912-9.574 38.912zM870.4 51.2h-204.8v332.8c0 42.342-34.458 76.8-76.8 76.8h-153.6c-42.342 0-76.8-34.458-76.8-76.8v-332.8h-204.8v555.162l359.014 260.71 357.786-259.738v-556.134z" />
<glyph unicode="&#xe62f;" d="M985.498 586.086l-462.080 332.8-10.803 6.707-10.752-6.707-462.080-332.8c0 0-20.070-16.794-8.602-38.912 10.394-20.019 31.437-6.912 31.437-6.912l39.782 28.928v-569.19h307.2v384c0 14.080 11.469 25.6 25.6 25.6h153.6c14.080 0 25.6-11.52 25.6-25.6v-384h307.2v570.163l41.114-29.85c0 0 18.483-12.339 32.358 6.861s-9.574 38.912-9.574 38.912z" />
<glyph unicode="&#xe630;" d="M742.4 51.2h-665.6c-42.342 0-76.8 34.458-76.8 76.8v665.6c0 42.342 34.458 76.8 76.8 76.8h665.6c42.342 0 76.8-34.458 76.8-76.8v-665.6c0-42.342-34.458-76.8-76.8-76.8zM76.8 819.2c-14.131 0-25.6-11.469-25.6-25.6v-665.6c0-14.080 11.469-25.6 25.6-25.6h665.6c14.080 0 25.6 11.52 25.6 25.6v665.6c0 14.131-11.52 25.6-25.6 25.6h-665.6zM460.8 716.8v-153.6h-102.4v153.6h-204.8v-512h204.8v153.6h102.4v-153.6h204.8v512h-204.8zM614.4 256h-102.4v153.6h-204.8v-153.6h-102.4v409.6h102.4v-153.6h204.8v153.6h102.4v-409.6z" horiz-adv-x="819" />
<glyph unicode="&#xe631;" d="M742.4 870.4h-665.6c-42.342 0-76.8-34.458-76.8-76.8v-665.6c0-42.342 34.458-76.8 76.8-76.8h665.6c42.342 0 76.8 34.458 76.8 76.8v665.6c0 42.342-34.458 76.8-76.8 76.8zM614.4 204.8h-102.4v204.8h-204.8v-204.8h-102.4v512h102.4v-204.8h204.8v204.8h102.4v-512z" horiz-adv-x="819" />
<glyph unicode="&#xe632;" d="M0 870.4v-819.2h819.2v819.2h-819.2zM768 102.4h-716.8v716.8h716.8v-716.8zM644.25 204.8h42.598l-163.84 308.326-131.43-94.669-175.309 234.957-66.765-448.614h29.696zM614.4 640c0-42.415-34.385-76.8-76.8-76.8s-76.8 34.385-76.8 76.8c0 42.415 34.385 76.8 76.8 76.8s76.8-34.385 76.8-76.8z" horiz-adv-x="819" />
<glyph unicode="&#xe633;" d="M384 819.2c-209.92 0-384-174.080-384-384s174.080-384 384-384 384 174.080 384 384-174.080 384-384 384zM384 102.4c-184.32 0-332.8 148.48-332.8 332.8s148.48 332.8 332.8 332.8 332.8-148.48 332.8-332.8-148.48-332.8-332.8-332.8zM409.6 558.080c0 0-10.24-5.12-25.6-5.12-15.36 5.12-25.6 5.12-25.6 5.12v56.32c0 0 10.24 5.12 25.6 5.12s25.6-5.12 25.6-5.12v-56.32zM409.6 256c0 0-10.24-5.12-25.6-5.12s-25.6 5.12-25.6 5.12v209.92c0 0 10.24 5.12 25.6 5.12s25.6-5.12 25.6-5.12v-209.92z" horiz-adv-x="768" />
<glyph unicode="&#xe634;" d="M256 256c0-28.277-22.923-51.2-51.2-51.2s-51.2 22.923-51.2 51.2c0 28.277 22.923 51.2 51.2 51.2s51.2-22.923 51.2-51.2zM684.595 870.4l-333.568-325.939c-29.44 11.827-61.389 18.739-95.027 18.739-141.158 0-256-114.842-256-256s114.842-256 256-256 256 114.842 256 256c0 34.662-7.066 67.635-19.61 97.792l4.608 4.608h66.202v102.4h102.4v102.4h102.4v102.4h51.2v153.6h-134.605zM768 783.565v-15.565h-51.2v-102.4h-102.4v-102.4h-102.4v-102.4h-51.2v-15.002l-31.181-31.181 6.963-12.851c14.95-28.416 24.218-60.262 24.218-94.566 0-112.947-91.853-204.8-204.8-204.8s-204.8 91.853-204.8 204.8 91.853 204.8 204.8 204.8c31.539 0 61.133-7.782 87.859-20.582 14.541-7.731 17.306-9.421 17.306-9.421l344.32 337.203h62.515v-35.635z" horiz-adv-x="819" />
<glyph unicode="&#xe635;" d="M684.595 870.4l-333.568-325.939c-29.44 11.827-61.389 18.739-95.027 18.739-141.158 0-256-114.842-256-256s114.842-256 256-256 256 114.842 256 256c0 34.662-7.066 67.635-19.61 97.792l4.608 4.608h66.202v102.4h102.4v102.4h102.4v102.4h51.2v153.6h-134.605zM204.8 204.8c-28.262 0-51.2 22.938-51.2 51.2s22.938 51.2 51.2 51.2 51.2-22.938 51.2-51.2c0-28.262-22.938-51.2-51.2-51.2z" horiz-adv-x="819" />
<glyph unicode="&#xe636;" d="M332.8 263.322v-48.538h-51.2v48.538c-15.053 8.909-25.6 24.627-25.6 43.366 0 28.262 22.938 51.2 51.2 51.2s51.2-22.938 51.2-51.2c0-18.79-10.547-34.458-25.6-43.366zM537.6 512h-25.6v153.6c0 112.947-91.853 204.8-204.8 204.8s-204.8-91.853-204.8-204.8v-153.6h-25.6c-42.342 0-76.8-34.458-76.8-76.8v-307.2c0-42.342 34.458-76.8 76.8-76.8h460.8c42.342 0 76.8 34.458 76.8 76.8v307.2c0 42.342-34.458 76.8-76.8 76.8zM153.6 665.6c0 84.685 68.915 153.6 153.6 153.6s153.6-68.915 153.6-153.6v-153.6h-307.2v153.6zM563.2 128c0-14.080-11.52-25.6-25.6-25.6h-460.8c-14.131 0-25.6 11.52-25.6 25.6v307.2c0 14.131 11.469 25.6 25.6 25.6h460.8c14.080 0 25.6-11.469 25.6-25.6v-307.2z" horiz-adv-x="614" />
<glyph unicode="&#xe637;" d="M307.2 327.578c0 28.262-22.938 51.2-51.2 51.2s-51.2-22.938-51.2-51.2c0-18.739 10.547-34.458 25.6-43.366v-48.538h51.2v48.486c15.053 8.96 25.6 24.627 25.6 43.418zM460.8 459.213v206.387c0 112.947-91.853 204.8-204.8 204.8s-204.8-91.853-204.8-204.8v-206.387c-31.744-42.65-51.2-94.874-51.2-152.013 0-141.158 114.842-256 256-256s256 114.842 256 256c0 57.139-19.456 109.363-51.2 152.013zM256 819.2c84.685 0 153.6-68.915 153.6-153.6v-154.931c-42.906 32.512-95.744 52.531-153.6 52.531s-110.694-20.019-153.6-52.531v154.931c0 84.685 68.915 153.6 153.6 153.6zM256 102.4c-112.947 0-204.8 91.853-204.8 204.8s91.853 204.8 204.8 204.8c112.947 0 204.8-91.853 204.8-204.8s-91.853-204.8-204.8-204.8z" horiz-adv-x="512" />
<glyph unicode="&#xe638;" d="M460.8 459.213v206.387c0 112.947-91.853 204.8-204.8 204.8s-204.8-91.853-204.8-204.8v-206.387c-31.744-42.65-51.2-94.874-51.2-152.013 0-141.158 114.842-256 256-256s256 114.842 256 256c0 57.139-19.456 109.363-51.2 152.013zM281.6 284.211v-48.538h-51.2v48.538c-15.053 8.858-25.6 24.576-25.6 43.366 0 28.262 22.938 51.2 51.2 51.2s51.2-22.938 51.2-51.2c0-18.79-10.547-34.509-25.6-43.366zM409.6 510.669c-42.906 32.512-95.744 52.531-153.6 52.531s-110.694-20.019-153.6-52.531v154.931c0 84.685 68.915 153.6 153.6 153.6s153.6-68.915 153.6-153.6v-154.931z" horiz-adv-x="512" />
<glyph unicode="&#xe639;" d="M537.6 512h-25.6v153.6c0 112.947-91.853 204.8-204.8 204.8s-204.8-91.853-204.8-204.8v-153.6h-25.6c-42.342 0-76.8-34.458-76.8-76.8v-307.2c0-42.342 34.458-76.8 76.8-76.8h460.8c42.342 0 76.8 34.458 76.8 76.8v307.2c0 42.342-34.458 76.8-76.8 76.8zM332.8 263.322v-48.538h-51.2v48.538c-15.053 8.909-25.6 24.627-25.6 43.366 0 28.262 22.938 51.2 51.2 51.2s51.2-22.938 51.2-51.2c0-18.79-10.547-34.458-25.6-43.366zM460.8 512h-307.2v153.6c0 84.685 68.915 153.6 153.6 153.6s153.6-68.915 153.6-153.6v-153.6z" horiz-adv-x="614" />
<glyph unicode="&#xe63a;" d="M299.315 717.978c60.416 62.31 144.794 101.222 238.285 101.222 183.501 0 332.8-149.299 332.8-332.8s-149.299-332.8-332.8-332.8c-94.157 0-179.2 39.424-239.718 102.502l-35.123-37.069c69.683-71.834 167.066-116.634 274.842-116.634 211.763 0 384 172.237 384 384s-172.237 384-384 384c-105.574 0-201.216-42.957-270.643-112.179l32.358-40.243zM563.2 460.8v51.2h-465.203l113.254 113.254-36.198 36.198-175.053-175.053 175.053-175.002 36.198 36.198-113.254 113.203z" horiz-adv-x="922" />
<glyph unicode="&#xe63b;" d="M819.2 31.59v674.099l-281.6 168.96-256-153.6-281.6 168.96v-674.15l281.6-168.96 256 153.6 281.6-168.909zM768 676.71v-554.701l-204.8 122.88v554.701l204.8-122.88zM51.2 244.89v554.701l204.8-122.88v-554.701l-204.8 122.88zM307.2 676.71l204.8 122.88v-554.65l-204.8-122.88v554.65z" horiz-adv-x="819" />
<glyph unicode="&#xe63c;" d="M256 736.41l-256 153.6v-674.099l256-153.6zM512 859.29l-204.8-122.88v-674.099l204.8 122.88zM563.2 859.29v-674.099l256-153.6v674.099z" horiz-adv-x="819" />
<glyph unicode="&#xe63d;" d="M204.8 614.4h512v-51.2h-512v51.2zM204.8 307.2h512v-51.2h-512v51.2zM204.8 460.8h512v-51.2h-512v51.2zM844.8 0h-768c-42.342 0-76.8 34.458-76.8 76.8v716.8c0 42.342 34.458 76.8 76.8 76.8h768c42.342 0 76.8-34.458 76.8-76.8v-716.8c0-42.342-34.458-76.8-76.8-76.8zM76.8 819.2c-14.131 0-25.6-11.469-25.6-25.6v-716.8c0-14.080 11.469-25.6 25.6-25.6h768c14.080 0 25.6 11.52 25.6 25.6v716.8c0 14.131-11.52 25.6-25.6 25.6h-768z" horiz-adv-x="922" />
<glyph unicode="&#xe63e;" d="M0 768h819.2v-102.4h-819.2v102.4zM0 256h819.2v-102.4h-819.2v102.4zM0 512h819.2v-102.4h-819.2v102.4z" horiz-adv-x="819" />
<glyph unicode="&#xe63f;" d="M870.4 921.6h-819.2c-28.262 0-51.2-22.938-51.2-51.2v-819.2c0-28.262 22.938-51.2 51.2-51.2h819.2c28.262 0 51.2 22.938 51.2 51.2v819.2c0 28.262-22.938 51.2-51.2 51.2zM768 153.6h-614.4v102.4h614.4v-102.4zM768 409.6h-614.4v102.4h614.4v-102.4zM768 665.6h-614.4v102.4h614.4v-102.4z" horiz-adv-x="922" />
<glyph unicode="&#xe640;" d="M0 768h358.4v-102.4h-358.4v102.4zM0 256h358.4v-102.4h-358.4v102.4zM0 512h358.4v-102.4h-358.4v102.4z" horiz-adv-x="358" />
<glyph unicode="&#xe641;" d="M742.4 819.2h-665.6c-42.342 0-76.8-34.458-76.8-76.8v-614.4c0-42.342 34.458-76.8 76.8-76.8h665.6c42.342 0 76.8 34.458 76.8 76.8v614.4c0 42.342-34.458 76.8-76.8 76.8zM665.6 256h-512v51.2h512v-51.2zM665.6 409.6h-512v51.2h512v-51.2zM665.6 563.2h-512v51.2h512v-51.2z" horiz-adv-x="819" />
<glyph unicode="&#xe642;" d="M384 819.2c-211.763 0-384-172.237-384-384s172.237-384 384-384 384 172.237 384 384-172.237 384-384 384zM384 102.4c-183.501 0-332.8 149.299-332.8 332.8s149.299 332.8 332.8 332.8 332.8-149.299 332.8-332.8-149.299-332.8-332.8-332.8zM204.8 460.8h358.4v-51.2h-358.4v51.2z" horiz-adv-x="768" />
<glyph unicode="&#xe643;" d="M696.576 847.155c-27.341 0-53.043-10.65-72.397-30.003l-491.725-491.725-114.278-224.358c0 0-8.602-22.733 0.205-31.539s32.666-1.331 32.666-1.331l221.901 108.134 495.974 495.974c19.354 19.354 30.003 45.056 30.003 72.397 0.102 54.733-47.667 102.502-102.349 102.451zM570.112 690.739l72.397-72.397-347.802-347.802-72.397 72.397 347.802 347.802zM83.046 132.915l89.702 160.461 13.363 13.363 72.397-72.397-13.158-13.158-162.304-88.269zM732.774 708.557l-54.016-54.016-72.397 72.397 54.016 54.016c9.677 9.677 22.528 15.002 36.198 15.002s26.522-5.325 36.198-15.002c9.677-9.677 15.002-22.528 15.002-36.198-0.051-13.67-5.325-26.522-15.002-36.198z" horiz-adv-x="819" />
<glyph unicode="&#xe644;" d="M714.803 618.189l54.17 54.17c19.354 19.354 30.003 45.056 30.003 72.397 0.051 54.682-47.718 102.4-102.4 102.4-27.341 0-53.043-10.65-72.397-30.003l-54.17-54.17 144.794-144.794zM678.589 582.007l-347.807-347.807-144.814 144.814 347.807 347.807 144.814-144.814zM149.76 342.835l-17.306-17.306-114.278-224.358c0 0-8.602-22.733 0.205-31.539s32.666-1.331 32.666-1.331l221.901 108.134 21.606 21.606-144.794 144.794z" horiz-adv-x="819" />
<glyph unicode="&#xe645;" d="M664.832 468.429c-4.147 137.574-116.685 248.371-255.232 248.371-82.125 0-154.522-39.578-201.421-99.891-46.848 8.55-88.32 13.517-120.525 13.517-31.846 0-75.418-3.789-86.118-36.659-14.848-45.722 62.976-97.587 152.832-140.698 4.198-137.523 116.736-248.269 255.232-248.269 82.074 0 154.419 39.526 201.318 99.789 46.95-8.55 88.32-13.363 120.627-13.363 31.795 0 75.418 3.789 86.118 36.608 14.848 45.722-62.976 97.485-152.832 140.595zM409.6 665.6c112.947 0 204.8-91.853 204.8-204.8 0-36.301-10.291-69.888-26.88-99.482-58.675 12.339-125.184 30.259-193.28 52.429-74.957 24.422-136.909 48.896-186.982 71.475 12.237 101.325 97.792 180.378 202.342 180.378zM87.654 579.226c24.576 0 55.808-3.277 91.341-9.165-9.216-19.405-16.486-39.834-20.582-61.542-57.702 29.338-92.109 53.709-103.68 67.686 5.888 1.485 16.077 3.021 32.922 3.021zM409.6 256c-101.99 0-186.112 75.162-201.574 172.902 72.755-31.13 143.155-54.989 170.394-63.846 61.901-20.173 121.549-36.506 176.077-48.845-37.12-37.171-88.371-60.211-144.896-60.211zM731.546 342.374c-24.576 0-55.962 3.328-91.392 9.114 9.216 19.354 16.435 39.68 20.582 61.286 57.446-29.184 92.211-53.504 103.731-67.482-5.888-1.382-16.077-2.918-32.922-2.918z" horiz-adv-x="819" />
<glyph unicode="&#xe646;" d="M307.2 716.8h-51.2v-256h-256v-51.2h256v-256h51.2v256h256v51.2h-256z" horiz-adv-x="563" />
<glyph unicode="&#xe647;" d="M384 819.2c-211.763 0-384-172.237-384-384s172.237-384 384-384 384 172.237 384 384-172.237 384-384 384zM384 102.4c-183.501 0-332.8 149.299-332.8 332.8s149.299 332.8 332.8 332.8 332.8-149.299 332.8-332.8-149.299-332.8-332.8-332.8zM409.6 614.4h-51.2v-153.6h-153.6v-51.2h153.6v-153.6h51.2v153.6h153.6v51.2h-153.6z" horiz-adv-x="768" />
<glyph unicode="&#xe648;" d="M819.2 614.4h-153.6v204.8h-512v-204.8h-153.6v-409.6h153.6v-153.6h512v153.6h153.6v409.6zM204.8 768h409.6v-153.6h-409.6v153.6zM614.4 102.4h-409.6v256h409.6v-256zM768 256h-102.4v153.6h-512v-153.6h-102.4v307.2h716.8v-307.2zM626.176 512h90.624v-51.2h-90.624v51.2z" horiz-adv-x="819" />
<glyph unicode="&#xe649;" d="M742.4 870.4h-665.6c-42.342 0-76.8-34.458-76.8-76.8v-665.6c0-42.342 34.458-76.8 76.8-76.8h665.6c42.342 0 76.8 34.458 76.8 76.8v665.6c0 42.342-34.458 76.8-76.8 76.8zM768 128c0-14.080-11.52-25.6-25.6-25.6h-665.6c-14.131 0-25.6 11.52-25.6 25.6v384h101.581l45.978 80.896 75.008-168.806 87.398 130.253 77.21-137.984 97.792 175.411 103.782-241.050 60.57 161.28h67.482v-384zM768 563.2h-102.912l-28.314-75.469-94.618 219.75-103.782-186.163-73.216 130.765-82.176-122.522-78.592 176.742-81.357-143.104h-71.834v230.4c0 14.131 11.469 25.6 25.6 25.6h665.6c14.080 0 25.6-11.469 25.6-25.6v-230.4zM153.6 256h51.2v-102.4h-51.2v102.4zM307.2 256h51.2v-102.4h-51.2v102.4zM460.8 307.2h51.2v-153.6h-51.2v153.6zM614.4 256h51.2v-102.4h-51.2v102.4z" horiz-adv-x="819" />
<glyph unicode="&#xe64a;" d="M743.424 717.67c29.133-34.406 26.061-86.426 3.482-146.534 0.051 0 0.051-0.051 0.102-0.051 0.102-0.051 0.154 0 0.256-0.051 0.205-0.102 0.358-0.205 0.563-0.307 15.155-6.502 30.618-11.213 46.387-15.718 27.648 75.981 30.72 145.715-11.725 195.789-43.571 51.405-94.976 77.466-152.781 77.466-96.154 0-182.323-73.472-219.802-110.797-36.25 36.864-118.784 107.981-215.603 107.981-57.446 0-110.080-24.73-156.57-73.574-49.306-51.814-43.571-128.102-9.779-211.302 15.616 7.475 31.334 14.49 47.462 20.48-27.238 66.304-32.307 122.214-0.614 155.546 36.403 38.298 76.595 57.651 119.45 57.651 103.424 0 194.611-109.517 195.533-110.643l19.456-23.603 19.866 23.245c0.973 1.126 98.253 113.766 200.602 113.766 42.65 0 79.821-19.405 113.715-59.341zM549.12 269.568c-50.381-59.597-100.608-113.152-139.571-151.859-49.152 48.486-101.888 105.779-151.552 165.53-14.285-10.342-29.338-19.098-45.414-26.368 81.050-97.382 159.078-173.978 179.251-193.434l17.766-17.101 17.766 17.101c18.739 18.022 88.525 86.579 163.84 175.616-14.438 9.779-28.774 19.405-42.086 30.515zM819.2 460.8l-200.294-2.048-47.974 95.13-103.782-134.963-73.165 130.765-82.227-122.522-78.541 176.742-81.408-143.104h-151.808v-51.2h181.606l45.978 80.896 75.059-168.858 87.398 130.253 77.21-137.984 97.792 140.493 25.446-44.8h228.71z" horiz-adv-x="819" />
<glyph unicode="&#xe64b;" d="M358.4 548.198v219.802h51.2v153.6h-358.4v-153.6h51.2v-219.802l-102.4-102.4v-87.398h204.8v-307.2l51.2-51.2v358.4h204.8v87.398l-102.4 102.4zM102.4 870.4h256v-51.2h-256v51.2zM307.2 768v-204.8h-153.6v204.8h153.6zM256 409.6h-204.8v15.002l87.398 87.398h183.603l87.296-87.194 0.051-15.206h-153.549z" horiz-adv-x="461" />
<glyph unicode="&#xe64c;" d="M461.619 380.877l155.443 155.443 36.198-36.198 108.595 108.595-253.44 253.44-108.595-108.595 36.198-36.198-155.392-155.443h-144.794l-61.85-61.798 144.794-144.794-217.242-217.242v-72.397l253.44 253.44 144.794-144.794 61.798 61.798v144.742zM508.467 789.76l181.043-181.043-36.198-36.198-181.043 181.043 36.198 36.198zM580.864 572.518l-144.794-144.794-108.646 108.595 144.794 144.794 108.646-108.595zM291.226 355.277l-144.794 144.845 10.598 10.598h123.597l129.843-129.843 0.051-123.392-10.701-10.803-108.595 108.595z" horiz-adv-x="768" />
<glyph unicode="&#xe64d;" d="M761.912 608.735l-108.466-108.466-253.425 253.425 108.466 108.466 253.425-253.425zM246.579 563.2h-110.746l-25.6-26.266-4.352-4.608-31.898-32.051 144.026-144.896-218.010-217.293v-72.448l37.018 36.25 217.6 217.19 144.589-144.794 61.594 61.798v110.746zM299.792 581.088l100.211 100.211 181.018-181.018-100.211-100.211-181.018 181.018z" horiz-adv-x="768" />
<glyph unicode="&#xe64e;" d="M51.2 870.4h358.4v-102.4h-358.4v102.4zM66.202 460.8l-66.202-66.202v-87.398h204.8v-307.2l51.2-51.2v358.4h204.8v87.398l-66.202 66.202zM102.4 716.8h256v-204.8h-256v204.8z" horiz-adv-x="461" />
<glyph unicode="&#xe64f;" d="M460.8 0c-254.054 0-460.8 206.694-460.8 460.8 0 254.054 206.746 460.8 460.8 460.8 254.106 0 460.8-206.746 460.8-460.8 0-254.106-206.694-460.8-460.8-460.8zM460.8 870.4c-225.843 0-409.6-183.757-409.6-409.6s183.757-409.6 409.6-409.6 409.6 183.757 409.6 409.6-183.757 409.6-409.6 409.6zM486.349 326.4c0 0-9.882-8.96-34.048-8.96-21.504 0-34.918 8.96-34.918 8.96 0 191.693 137.062 150.477 137.062 283.085 0 61.798-38.554 86.016-102.144 86.016-64.512 0-102.144-20.582-102.144-20.582-20.582 14.234-30.464 37.53-27.75 63.539 0 0 52.89 31.334 143.309 31.334 104.806 0 180.992-49.306 180.992-155.853 0-175.565-160.358-143.309-160.358-287.539zM498.893 158.003c0 0-16.128-6.298-46.592-6.298-32.256 0-46.592 6.298-46.592 6.298v84.173c0 0 14.336 6.298 46.592 6.298 30.464 0 46.592-6.298 46.592-6.298v-84.173z" horiz-adv-x="922" />
<glyph unicode="&#xe650;" d="M460.8 921.6c-254.054 0-460.8-206.746-460.8-460.8 0-254.106 206.746-460.8 460.8-460.8 254.106 0 460.8 206.694 460.8 460.8 0 254.054-206.694 460.8-460.8 460.8zM498.893 158.003c0 0-16.128-6.298-46.592-6.298-32.256 0-46.592 6.298-46.592 6.298v84.173c0 0 14.336 6.298 46.592 6.298 30.464 0 46.592-6.298 46.592-6.298v-84.173zM486.349 326.4c0 0-9.882-8.96-34.048-8.96-21.504 0-34.918 8.96-34.918 8.96 0 191.693 137.062 150.477 137.062 283.085 0 61.798-38.554 86.016-102.144 86.016-64.512 0-102.144-20.582-102.144-20.582-20.582 14.234-30.464 37.53-27.75 63.539 0 0 52.89 31.334 143.309 31.334 104.806 0 180.992-49.306 180.992-155.853 0-175.565-160.358-143.309-160.358-287.539z" horiz-adv-x="922" />
<glyph unicode="&#xe651;" d="M15.258 403.712l105.37 204.134 124.109-193.331-87.501-4.147c33.536-239.872 302.029-379.341 517.888-268.8l23.347-45.619c-0.563-0.307-1.178-0.512-1.792-0.819l0.051-0.102c-248.32-125.645-555.162 37.427-590.694 312.934l-90.778-4.25zM495.104 818.79c-50.586-2.406-101.171-15.667-146.278-38.81l-23.296 45.568c0.563 0.307 1.178 0.512 1.792 0.768l-0.102 0.154c249.037 125.952 555.366-37.018 590.694-312.883l90.88 4.301-105.37-204.134-124.109 193.331 87.501 4.147c-25.651 180.634-185.446 315.853-371.712 307.558z" />
<glyph unicode="&#xe652;" d="M574.208 695.552l-215.398 123.648 0.256-100.045c-38.4-3.43-113.408-15.155-178.944-55.91-87.654-55.142-145.971-134.144-148.429-137.472l41.37-30.208c0.512 0.717 54.886 74.445 134.298 124.416 53.197 33.587 117.094 44.237 151.808 47.718l0.205-96.87 214.835 124.723zM644.813 426.086c-0.512-0.768-54.886-74.445-134.349-124.416-53.248-33.587-117.094-44.237-151.757-47.77l-0.256 96.768-214.784-124.672 215.45-123.597-0.256 99.994c36.659 3.174 106.803 13.824 169.779 50.381 3.072 1.792 6.144 3.686 9.165 5.53 87.603 55.142 145.92 134.195 148.378 137.523l-41.37 30.259z" horiz-adv-x="717" />
<glyph unicode="&#xe653;" d="M701.798 870.4h-701.798v-819.2h819.2v701.798l-117.402 117.402zM460.8 819.2v-204.8h102.4v204.8h51.2v-256h-409.6v256h256zM153.6 102.4v256h512v-256h-512zM768 102.4h-51.2v307.2h-614.4v-307.2h-51.2v716.8h102.4v-307.2h512v307.2h15.002l87.398-87.398v-629.402z" horiz-adv-x="819" />
<glyph unicode="&#xe654;" d="M701.798 870.4h-701.798v-819.2h819.2v701.798l-117.402 117.402zM460.8 819.2v-204.8h102.4v204.8h51.2v-256h-409.6v256h256zM153.6 102.4v256h512v-256h-512z" horiz-adv-x="819" />
<glyph unicode="&#xe655;" d="M851.712 214.682l-232.602 205.312c29.338 49.562 46.49 107.162 46.49 168.806 0 183.501-149.299 332.8-332.8 332.8s-332.8-149.299-332.8-332.8 149.299-332.8 332.8-332.8c61.696 0 119.347 17.203 168.909 46.592l206.285-233.83c19.354-19.354 45.056-29.952 72.448-29.952 27.341 0 53.043 10.598 72.397 29.952 39.936 39.936 39.936 104.909-1.126 145.92zM51.2 588.8c0 155.29 126.31 281.6 281.6 281.6s281.6-126.31 281.6-281.6-126.31-281.6-281.6-281.6-281.6 126.31-281.6 281.6zM816.64 104.96c-19.302-19.354-54.272-18.125-71.373-1.126l-201.216 228.096c16.691 13.773 32 29.082 45.722 45.773l226.816-200.294c20.019-19.968 20.019-52.531 0.051-72.448z" horiz-adv-x="922" />
<glyph unicode="&#xe656;" d="M851.712 214.682l-232.602 205.312c29.338 49.562 46.49 107.162 46.49 168.806 0 183.501-149.299 332.8-332.8 332.8s-332.8-149.299-332.8-332.8 149.299-332.8 332.8-332.8c61.696 0 119.347 17.203 168.909 46.592l206.285-233.83c19.354-19.354 45.056-29.952 72.448-29.952 27.341 0 53.043 10.598 72.397 29.952 39.936 39.936 39.936 104.909-1.126 145.92zM51.2 588.8c0 155.29 126.31 281.6 281.6 281.6s281.6-126.31 281.6-281.6-126.31-281.6-281.6-281.6-281.6 126.31-281.6 281.6z" horiz-adv-x="922" />
<glyph unicode="&#xe657;" d="M851.712 214.682l-232.602 205.312c29.338 49.562 46.49 107.162 46.49 168.806 0 183.501-149.299 332.8-332.8 332.8s-332.8-149.299-332.8-332.8 149.299-332.8 332.8-332.8c61.696 0 119.347 17.203 168.909 46.592l206.285-233.83c19.354-19.354 45.056-29.952 72.448-29.952 27.341 0 53.043 10.598 72.397 29.952 39.936 39.936 39.936 104.909-1.126 145.92zM51.2 588.8c0 155.29 126.31 281.6 281.6 281.6s281.6-126.31 281.6-281.6-126.31-281.6-281.6-281.6-281.6 126.31-281.6 281.6zM816.64 104.96c-19.302-19.354-54.272-18.125-71.373-1.126l-201.216 228.096c16.691 13.773 32 29.082 45.722 45.773l226.816-200.294c20.019-19.968 20.019-52.531 0.051-72.448zM153.6 614.4h358.4v-51.2h-358.4v51.2z" horiz-adv-x="922" />
<glyph unicode="&#xe658;" d="M851.712 214.682l-232.602 205.312c29.338 49.562 46.49 107.162 46.49 168.806 0 183.501-149.299 332.8-332.8 332.8s-332.8-149.299-332.8-332.8 149.299-332.8 332.8-332.8c61.696 0 119.347 17.203 168.909 46.592l206.285-233.83c19.354-19.354 45.056-29.952 72.448-29.952 27.341 0 53.043 10.598 72.397 29.952 39.936 39.936 39.936 104.909-1.126 145.92zM51.2 588.8c0 155.29 126.31 281.6 281.6 281.6s281.6-126.31 281.6-281.6-126.31-281.6-281.6-281.6-281.6 126.31-281.6 281.6zM153.6 614.4h358.4v-51.2h-358.4v51.2z" horiz-adv-x="922" />
<glyph unicode="&#xe659;" d="M851.712 214.682l-232.602 205.312c29.338 49.562 46.49 107.162 46.49 168.806 0 183.501-149.299 332.8-332.8 332.8s-332.8-149.299-332.8-332.8 149.299-332.8 332.8-332.8c61.696 0 119.347 17.203 168.909 46.592l206.285-233.83c19.354-19.354 45.056-29.952 72.448-29.952 27.341 0 53.043 10.598 72.397 29.952 39.936 39.936 39.936 104.909-1.126 145.92zM51.2 588.8c0 155.29 126.31 281.6 281.6 281.6s281.6-126.31 281.6-281.6-126.31-281.6-281.6-281.6-281.6 126.31-281.6 281.6zM816.64 104.96c-19.302-19.354-54.272-18.125-71.373-1.126l-201.216 228.096c16.691 13.773 32 29.082 45.722 45.773l226.816-200.294c20.019-19.968 20.019-52.531 0.051-72.448zM512 614.4h-153.6v153.6h-51.2v-153.6h-153.6v-51.2h153.6v-153.6h51.2v153.6h153.6z" horiz-adv-x="922" />
<glyph unicode="&#xe65a;" d="M851.712 214.682l-232.602 205.312c29.338 49.562 46.49 107.162 46.49 168.806 0 183.501-149.299 332.8-332.8 332.8s-332.8-149.299-332.8-332.8 149.299-332.8 332.8-332.8c61.696 0 119.347 17.203 168.909 46.592l206.285-233.83c19.354-19.354 45.056-29.952 72.448-29.952 27.341 0 53.043 10.598 72.397 29.952 39.936 39.936 39.936 104.909-1.126 145.92zM51.2 588.8c0 155.29 126.31 281.6 281.6 281.6s281.6-126.31 281.6-281.6-126.31-281.6-281.6-281.6-281.6 126.31-281.6 281.6zM512 614.4h-153.6v153.6h-51.2v-153.6h-153.6v-51.2h153.6v-153.6h51.2v153.6h153.6z" horiz-adv-x="922" />
<glyph unicode="&#xe65b;" d="M691.2 614.4c70.605 0 128 57.446 128 128s-57.395 128-128 128-128-57.446-128-128c0-6.4 0.973-12.493 1.894-18.637l-328.397-119.398c-22.579 36.557-62.669 61.235-108.698 61.235-70.554 0-128-57.446-128-128s57.446-128 128-128c31.693 0 60.416 12.032 82.79 31.181l263.731-205.107c-8.499-17.101-13.722-36.096-13.722-56.474 0-70.605 57.395-128 128-128s128 57.395 128 128-57.395 128-128 128c-31.744 0-60.416-12.032-82.79-31.181l-263.731 205.107c8.499 17.101 13.722 36.096 13.722 56.474 0 6.4-0.973 12.493-1.894 18.637l328.397 119.398c22.528-36.557 62.618-61.235 108.698-61.235zM51.2 537.6c0 42.342 34.458 76.8 76.8 76.8s76.8-34.458 76.8-76.8-34.458-76.8-76.8-76.8-76.8 34.458-76.8 76.8zM588.8 256c42.342 0 76.8-34.458 76.8-76.8s-34.458-76.8-76.8-76.8-76.8 34.458-76.8 76.8 34.458 76.8 76.8 76.8zM691.2 819.2c42.342 0 76.8-34.458 76.8-76.8s-34.458-76.8-76.8-76.8-76.8 34.458-76.8 76.8 34.458 76.8 76.8 76.8z" horiz-adv-x="819" />
<glyph unicode="&#xe65c;" d="M366.746 563.2h-321.382c-18.278 0-34.662 10.854-41.728 27.648-7.117 16.794-3.533 36.147 9.165 49.203l160.768 165.376c17.152 17.715 47.77 17.766 64.973-0.051l160.717-165.325c12.749-13.158 16.282-32.461 9.216-49.254-7.117-16.742-23.501-27.597-41.728-27.597zM59.29 614.4h293.581l-146.842 151.040-146.739-151.040zM206.029 102.4c-12.339 0-23.859 4.864-32.461 13.722l-160.717 165.376c-12.749 13.107-16.333 32.461-9.216 49.254 7.066 16.794 23.45 27.648 41.728 27.648h321.382c18.176 0 34.611-10.854 41.677-27.648s3.533-36.096-9.165-49.203l-160.768-165.427c-8.55-8.858-20.070-13.722-32.461-13.722zM59.29 307.2l146.79-151.040 146.79 151.040h-293.581z" horiz-adv-x="410" />
<glyph unicode="&#xe65d;" d="M708.096 19.61c-12.851 0-25.139 3.994-35.584 11.571l-211.712 153.805-211.661-153.805c-21.043-15.206-50.483-15.104-71.27-0.051-21.35 15.616-30.157 42.854-22.016 67.84l80.794 248.781-211.61 153.856c-21.35 15.514-30.208 42.752-22.016 67.789 8.141 25.037 31.283 41.882 57.651 41.882h261.632l80.845 248.832c8.141 25.037 31.283 41.882 57.651 41.882s49.51-16.845 57.6-41.882l80.845-248.832h261.632c26.266 0 49.459-16.794 57.651-41.779 8.141-25.139-0.768-52.326-22.016-67.84l-211.712-153.805 80.845-248.832c8.141-25.037-0.717-52.275-22.016-67.738-10.394-7.68-22.682-11.674-35.533-11.674zM460.8 248.32l241.766-175.718c3.226-2.304 7.834-2.355 11.162 0.051 3.226 2.355 4.608 6.605 3.328 10.496l-92.365 284.262 241.818 175.616c3.277 2.406 4.71 6.656 3.43 10.598-1.229 3.789-4.915 6.451-9.011 6.451h-298.854l-92.314 284.211c-2.458 7.782-15.411 7.782-17.92 0l-92.365-284.211h-298.803c-4.096 0-7.68-2.611-8.96-6.502s0.102-8.141 3.43-10.547l241.766-175.616-92.314-284.262c-1.28-3.891 0.102-8.141 3.43-10.598 3.84-2.765 6.912-2.918 11.11 0.102l241.664 175.667z" horiz-adv-x="922" />
<glyph unicode="&#xe65e;" d="M556.544 696.832l-36.198 36.198-237.875-237.926-237.875 237.926-36.198-36.198 237.875-237.926-237.875-237.926 36.198-36.198 237.875 237.926 237.875-237.926 36.198 36.198-237.875 237.926z" horiz-adv-x="563" />
<glyph unicode="&#xe65f;" d="M204.8 614.4h51.2v-409.6h-51.2v409.6zM358.4 614.4h51.2v-409.6h-51.2v409.6zM512 614.4h51.2v-409.6h-51.2v409.6zM563.2 768v32.563c0 38.502-31.334 69.837-69.837 69.837h-218.726c-38.502 0-69.837-31.334-69.837-69.837v-32.563h-204.8v-51.2h51.2v-588.8c0-42.342 34.458-76.8 76.8-76.8h512c42.342 0 76.8 34.458 76.8 76.8v588.8h51.2v51.2h-204.8zM256 800.563c0 10.24 8.397 18.637 18.637 18.637h218.675c10.342 0 18.688-8.397 18.688-18.637v-32.563h-256v32.563zM665.6 128c0-14.080-11.52-25.6-25.6-25.6h-512c-14.131 0-25.6 11.52-25.6 25.6v588.8h563.2v-588.8z" horiz-adv-x="768" />
<glyph unicode="&#xe660;" d="M563.2 768v32.563c0 38.502-31.334 69.837-69.837 69.837h-218.726c-38.502 0-69.837-31.334-69.837-69.837v-32.563h-204.8v-51.2h51.2v-588.8c0-42.342 34.458-76.8 76.8-76.8h512c42.342 0 76.8 34.458 76.8 76.8v588.8h51.2v51.2h-204.8zM256 204.8h-51.2v409.6h51.2v-409.6zM256 800.563c0 10.24 8.397 18.637 18.637 18.637h218.675c10.342 0 18.688-8.397 18.688-18.637v-32.563h-256v32.563zM409.6 204.8h-51.2v409.6h51.2v-409.6zM563.2 204.8h-51.2v409.6h51.2v-409.6z" horiz-adv-x="768" />
<glyph unicode="&#xe661;" d="M332.8 263.322v-48.538h-51.2v48.538c-15.053 8.909-25.6 24.627-25.6 43.366 0 28.262 22.938 51.2 51.2 51.2s51.2-22.938 51.2-51.2c0-18.79-10.547-34.458-25.6-43.366zM537.6 512h-25.6v153.6c0 112.947-91.853 204.8-204.8 204.8s-204.8-91.853-204.8-204.8h51.2c0 84.685 68.915 153.6 153.6 153.6s153.6-68.915 153.6-153.6v-153.6h-384c-42.342 0-76.8-34.458-76.8-76.8v-307.2c0-42.342 34.458-76.8 76.8-76.8h460.8c42.342 0 76.8 34.458 76.8 76.8v307.2c0 42.342-34.458 76.8-76.8 76.8zM563.2 128c0-14.080-11.52-25.6-25.6-25.6h-460.8c-14.131 0-25.6 11.52-25.6 25.6v307.2c0 14.131 11.469 25.6 25.6 25.6h460.8c14.080 0 25.6-11.469 25.6-25.6v-307.2z" horiz-adv-x="614" />
<glyph unicode="&#xe662;" d="M307.2 327.578c0 28.262-22.938 51.2-51.2 51.2s-51.2-22.938-51.2-51.2c0-18.739 10.547-34.458 25.6-43.366v-48.538h51.2v48.486c15.053 8.96 25.6 24.627 25.6 43.418zM460.8 459.213v206.387c0 112.947-91.853 204.8-204.8 204.8s-204.8-91.853-204.8-204.8h51.2c0 84.685 68.915 153.6 153.6 153.6s153.6-68.915 153.6-153.6v-154.931c-42.906 32.512-95.744 52.531-153.6 52.531-141.158 0-256-114.842-256-256s114.842-256 256-256 256 114.842 256 256c0 57.139-19.456 109.363-51.2 152.013zM256 102.4c-112.947 0-204.8 91.853-204.8 204.8s91.853 204.8 204.8 204.8c112.947 0 204.8-91.853 204.8-204.8s-91.853-204.8-204.8-204.8z" horiz-adv-x="512" />
<glyph unicode="&#xe663;" d="M460.8 459.213v206.387c0 112.947-91.853 204.8-204.8 204.8s-204.8-91.853-204.8-204.8h51.2c0 84.685 68.915 153.6 153.6 153.6s153.6-68.915 153.6-153.6v-154.931c-42.906 32.512-95.744 52.531-153.6 52.531-141.158 0-256-114.842-256-256s114.842-256 256-256 256 114.842 256 256c0 57.139-19.456 109.363-51.2 152.013zM281.6 284.16v-48.486h-51.2v48.538c-15.053 8.909-25.6 24.627-25.6 43.366 0 28.262 22.938 51.2 51.2 51.2s51.2-22.938 51.2-51.2c0-18.79-10.547-34.458-25.6-43.418z" horiz-adv-x="512" />
<glyph unicode="&#xe664;" d="M537.6 512h-25.6v153.6c0 112.947-91.853 204.8-204.8 204.8s-204.8-91.853-204.8-204.8h51.2c0 84.685 68.915 153.6 153.6 153.6s153.6-68.915 153.6-153.6v-153.6h-384c-42.342 0-76.8-34.458-76.8-76.8v-307.2c0-42.342 34.458-76.8 76.8-76.8h460.8c42.342 0 76.8 34.458 76.8 76.8v307.2c0 42.342-34.458 76.8-76.8 76.8zM332.8 263.322v-48.538h-51.2v48.538c-15.053 8.909-25.6 24.627-25.6 43.366 0 28.262 22.938 51.2 51.2 51.2s51.2-22.938 51.2-51.2c0-18.79-10.547-34.458-25.6-43.366z" horiz-adv-x="614" />
<glyph unicode="&#xe665;" d="M307.2 460.8h154.112l-230.912 399.872-230.861-399.872h154.061v-256h-153.6v-153.6h460.8v153.6h-153.6v256zM409.6 153.6v-51.2h-358.4v51.2h153.6v358.4h-116.582l142.182 246.272 142.182-246.272h-116.582v-358.4h153.6z" horiz-adv-x="461" />
<glyph unicode="&#xe666;" d="M704.512 438.784c22.733 35.635 29.133 64.461 24.32 97.229-8.192 55.859-57.958 103.987-114.432 103.987-25.139 0-47.872-9.472-65.69-24.525-32.102 88.678-116.326 152.525-215.91 152.525-127.027 0-230.4-103.373-230.4-230.4 0-17.613 2.56-34.509 6.502-50.893-64.563-34.253-108.902-101.376-108.902-179.507 0-112.947 91.853-204.8 204.8-204.8h409.6c112.947 0 204.8 91.853 204.8 204.8 0 80.486-38.4 114.381-114.688 131.584zM614.4 153.6c-10.65 0-400.845 0-409.6 0-84.685 0-153.6 68.915-153.6 153.6 0 55.91 30.515 104.090 75.366 130.765 28.262 15.104 47.104 18.33 47.104 18.33s-11.52 27.955-16.64 48.384c-2.048 10.701-3.43 21.606-3.43 32.922 0 98.816 80.384 179.2 179.2 179.2s156.006-72.806 198.298-183.808c23.296 27.802 55.040 56.371 83.302 55.808 77.619-1.587 89.6-105.626 24.781-176.026 113.613-27.187 128.819-39.578 128.819-105.574 0-84.685-68.915-153.6-153.6-153.6zM531.661 376.371l-147.661 177.203-147.661-177.152 39.322-32.819 82.739 99.277v-238.080h51.2v238.131l82.739-99.328z" horiz-adv-x="819" />
<glyph unicode="&#xe667;" d="M883.763 51.456h-794.675c-23.603 0-44.749 12.186-56.525 32.666-11.827 20.429-11.827 44.851-0.051 65.331l397.312 688.23c23.603 40.909 89.549 40.909 113.152 0l397.312-688.23c11.827-20.48 11.827-44.902 0-65.331-11.776-20.429-32.922-32.666-56.525-32.666zM486.4 812.493c-1.997 0-4.71-0.666-6.451-3.738l-397.312-688.23c-1.792-3.123-0.973-5.837 0-7.526s2.918-3.738 6.451-3.738h794.675c3.584 0 5.478 2.048 6.502 3.738 0.973 1.69 1.741 4.403-0.051 7.526l-397.363 688.23c-1.741 3.072-4.454 3.738-6.451 3.738zM447.642 610.15c0 0 15.104 5.581 42.803 5.581 25.754 0 42.803-5.581 42.803-5.581l-13.21-295.424c0 0-10.701-6.298-28.979-6.298s-30.208 6.298-30.208 6.298l-13.21 295.424zM530.125 164.25c0 0-13.875-5.632-39.68-5.632-27.699 0-39.68 5.632-39.68 5.632v80.691c0 0 11.981 5.53 39.68 5.53 25.754 0 39.68-5.53 39.68-5.53v-80.691z" horiz-adv-x="973" />
<glyph unicode="&#xe668;" d="M940.288 149.453l-397.312 688.23c-23.603 40.909-89.549 40.909-113.152 0l-397.312-688.23c-11.827-20.48-11.827-45.056 0.051-65.485 11.776-20.429 32.922-32.768 56.525-32.768h794.675c23.603 0 44.749 12.339 56.525 32.768 11.827 20.48 11.827 45.005 0 65.485zM530.125 164.25c0 0-13.875-5.632-39.68-5.632-27.699 0-39.68 5.632-39.68 5.632v80.691c0 0 11.981 5.53 39.68 5.53 25.754 0 39.68-5.53 39.68-5.53v-80.691zM520.038 314.726c0 0-10.701-6.298-28.979-6.298s-30.208 6.298-30.208 6.298l-13.21 295.424c0 0 15.104 5.581 42.803 5.581 25.754 0 42.803-5.581 42.803-5.581l-13.21-295.424z" horiz-adv-x="973" />
<glyph unicode="&#xe669;" d="M460.8 707.994l68.352-138.496 152.883-22.221-110.643-107.827 26.112-152.269-136.704 71.885-136.704-71.885 26.112 152.269-110.643 107.827 152.883 22.221zM768 716.8v102.4h-614.4v-102.4h-153.6v-665.6h307.2v102.4h307.2v-102.4h307.2v665.6h-153.6zM204.8 768h512v-563.2h-512v563.2zM51.2 665.6h102.4v-512l62.618-51.2h-165.018v563.2zM870.4 102.4h-162.253l59.853 51.2v512h102.4v-563.2z" horiz-adv-x="922" />
<glyph unicode="&#xe66a;" d="M153.6 152.576v564.224h-153.6v-665.6h278.067zM768 716.8v-564.224l-124.467-101.376h278.067v665.6zM204.8 819.2v-641.485l102.4-83.763v59.648h307.2v-59.699l102.4 83.763v641.536h-512zM571.392 439.45l26.112-152.269-136.704 71.885-136.704-71.885 26.112 152.269-110.592 107.827 152.883 22.221 68.301 138.496 68.352-138.496 152.883-22.221-110.643-107.827z" horiz-adv-x="922" />
<glyph unicode="&#xe66b;" d="M460.8 204.8c0 152.269-44.698 282.061-112.384 352.614 37.222 32.87 61.184 80.384 61.184 133.786 0 98.816-80.384 179.2-179.2 179.2s-179.2-80.384-179.2-179.2c0-53.35 23.91-100.813 61.082-133.683-67.635-70.605-112.282-200.448-112.282-352.717 0-35.482 2.458-69.786 7.014-102.4l9.216-51.2h427.93c11.827 37.581 16.64 118.016 16.64 153.6zM102.4 691.2c0 70.554 57.446 128 128 128s128-57.446 128-128-57.446-128-128-128-128 57.446-128 128zM59.443 102.4c-5.12 32.666-8.243 66.867-8.243 102.4 0 141.363 43.622 266.189 104.704 323.942 22.784-10.496 47.821-16.742 74.496-16.742 26.419 0 51.354 6.093 73.984 16.435 61.286-57.6 105.216-182.016 105.216-323.635 0-35.533-3.174-69.734-8.294-102.4h-341.862z" horiz-adv-x="461" />
<glyph unicode="&#xe66c;" d="M0 819.2h409.6v-102.4h-409.6v102.4zM0 307.2h819.2v-51.2h-819.2v51.2zM0 153.6h819.2v-51.2h-819.2v51.2zM0 614.4h819.2v-51.2h-819.2v51.2zM0 460.8h819.2v-51.2h-819.2v51.2z" horiz-adv-x="819" />
<glyph unicode="&#xe66d;" d="M204.8 768h614.4v-102.4h-614.4v102.4zM204.8 256h614.4v-102.4h-614.4v102.4zM204.8 512h614.4v-102.4h-614.4v102.4zM102.4 716.8c0-28.277-22.923-51.2-51.2-51.2s-51.2 22.923-51.2 51.2c0 28.277 22.923 51.2 51.2 51.2s51.2-22.923 51.2-51.2zM102.4 460.8c0-28.277-22.923-51.2-51.2-51.2s-51.2 22.923-51.2 51.2c0 28.277 22.923 51.2 51.2 51.2s51.2-22.923 51.2-51.2zM102.4 204.8c0-28.277-22.923-51.2-51.2-51.2s-51.2 22.923-51.2 51.2c0 28.277 22.923 51.2 51.2 51.2s51.2-22.923 51.2-51.2z" horiz-adv-x="819" />
<glyph unicode="&#xe66e;" d="M665.6 768v102.4h-665.6v-665.6h102.4v-102.4h665.6v665.6h-102.4zM153.6 409.6h153.6v-102.4h-153.6v102.4zM153.6 460.8v102.4h153.6v-102.4h-153.6zM358.4 409.6h153.6v-102.4h-153.6v102.4zM358.4 460.8v102.4h153.6v-102.4h-153.6zM563.2 563.2h153.6v-102.4h-153.6v102.4zM563.2 614.4h-409.6v102.4h563.2v-102.4h-153.6zM51.2 256v563.2h563.2v-51.2h-512v-512h-51.2zM153.6 153.6v102.4h153.6v-102.4h-153.6zM358.4 153.6v102.4h153.6v-102.4h-153.6zM716.8 153.6h-153.6v102.4h153.6v-102.4zM563.2 307.2v102.4h153.6v-102.4h-153.6z" horiz-adv-x="768" />
<glyph unicode="&#xe66f;" d="M307.2 870.4v-624.64l-199.68 204.8-76.8-71.68 327.68-327.68 327.68 327.68-76.8 71.68-199.68-204.8v624.64z" horiz-adv-x="717" />
<glyph unicode="&#xe670;" d="M819.2 512h-624.64l204.8 199.68-71.68 76.8-327.68-327.68 327.68-327.68 71.68 76.8-204.8 199.68h624.64z" horiz-adv-x="819" />
<glyph unicode="&#xe671;" d="M0 409.6h624.64l-204.8-199.68 71.68-76.8 327.68 327.68-327.68 327.68-71.68-76.8 204.8-199.68h-624.64z" horiz-adv-x="819" />
<glyph unicode="&#xe672;" d="M409.6 51.2v624.64l199.68-204.8 76.8 71.68-327.68 327.68-327.68-327.68 76.8-71.68 199.68 204.8v-624.64z" horiz-adv-x="717" />
<glyph unicode="&#xe673;" d="M337.92 245.76l-143.36 143.36 35.84 35.84 107.52-107.52 230.4 235.52 35.84-40.96zM384 819.2c-209.92 0-384-174.080-384-384s174.080-384 384-384 384 174.080 384 384-174.080 384-384 384zM384 102.4c-184.32 0-332.8 148.48-332.8 332.8s148.48 332.8 332.8 332.8 332.8-148.48 332.8-332.8-148.48-332.8-332.8-332.8z" horiz-adv-x="768" />
<glyph unicode="&#xe674;" d="M686.080 696.32l-35.84 35.84-235.52-225.28c0-5.12-5.12-15.36-5.12-20.48s5.12-15.36 5.12-20.48v0l163.84-163.84 35.84 35.84-143.36 143.36 215.040 215.040zM435.2 921.6c-240.64 0-435.2-194.56-435.2-435.2s194.56-435.2 435.2-435.2c240.64 0 435.2 194.56 435.2 435.2s-194.56 435.2-435.2 435.2zM460.8 102.4v102.4h-51.2v-102.4c-189.44 10.24-343.040 163.84-358.4 358.4h102.4v51.2h-102.4c10.24 189.44 163.84 343.040 358.4 358.4v-102.4h51.2v102.4c189.44-10.24 343.040-163.84 358.4-358.4h-102.4v-51.2h102.4c-15.36-189.44-168.96-343.040-358.4-358.4z" horiz-adv-x="870" />
<glyph unicode="&#xe675;" d="M358.4 665.6v-363.52l-66.56 66.56-35.84-35.84 128-128 128 128-35.84 35.84-66.56-66.56v363.52zM384 819.2c-209.92 0-384-174.080-384-384s174.080-384 384-384 384 174.080 384 384-174.080 384-384 384zM384 102.4c-184.32 0-332.8 148.48-332.8 332.8s148.48 332.8 332.8 332.8 332.8-148.48 332.8-332.8-148.48-332.8-332.8-332.8z" horiz-adv-x="768" />
<glyph unicode="&#xe676;" d="M614.4 460.8h-363.52l66.56 66.56-35.84 35.84-128-128 128-128 35.84 35.84-66.56 66.56h363.52zM384 819.2c-209.92 0-384-174.080-384-384s174.080-384 384-384 384 174.080 384 384-174.080 384-384 384zM384 102.4c-184.32 0-332.8 148.48-332.8 332.8s148.48 332.8 332.8 332.8 332.8-148.48 332.8-332.8-148.48-332.8-332.8-332.8z" horiz-adv-x="768" />
<glyph unicode="&#xe677;" d="M153.6 409.6h363.52l-66.56-66.56 35.84-35.84 128 128-128 128-35.84-35.84 66.56-66.56h-363.52zM384 819.2c-209.92 0-384-174.080-384-384s174.080-384 384-384 384 174.080 384 384-174.080 384-384 384zM384 102.4c-184.32 0-332.8 148.48-332.8 332.8s148.48 332.8 332.8 332.8 332.8-148.48 332.8-332.8-148.48-332.8-332.8-332.8z" horiz-adv-x="768" />
<glyph unicode="&#xe678;" d="M409.6 204.8v363.52l66.56-66.56 35.84 35.84-128 128-128-128 35.84-35.84 66.56 66.56v-363.52zM384 819.2c-209.92 0-384-174.080-384-384s174.080-384 384-384 384 174.080 384 384-174.080 384-384 384zM384 102.4c-184.32 0-332.8 148.48-332.8 332.8s148.48 332.8 332.8 332.8 332.8-148.48 332.8-332.8-148.48-332.8-332.8-332.8z" horiz-adv-x="768" />
<glyph unicode="&#xe679;" d="M153.6 460.8c0-42.415-34.385-76.8-76.8-76.8s-76.8 34.385-76.8 76.8c0 42.415 34.385 76.8 76.8 76.8s76.8-34.385 76.8-76.8zM153.6 768c0-42.415-34.385-76.8-76.8-76.8s-76.8 34.385-76.8 76.8c0 42.415 34.385 76.8 76.8 76.8s76.8-34.385 76.8-76.8zM153.6 153.6c0-42.415-34.385-76.8-76.8-76.8s-76.8 34.385-76.8 76.8c0 42.415 34.385 76.8 76.8 76.8s76.8-34.385 76.8-76.8z" horiz-adv-x="154" />
<glyph unicode="&#xe67a;" d="M345.242 661.35c0 0 15.104 5.581 42.803 5.581 25.754 0 42.803-5.581 42.803-5.581l-13.21-295.424c0 0-10.701-6.298-28.979-6.298s-30.208 6.298-30.208 6.298l-13.21 295.424zM427.725 215.45c0 0-13.875-5.632-39.68-5.632-27.699 0-39.68 5.632-39.68 5.632v80.691c0 0 11.981 5.53 39.68 5.53 25.754 0 39.68-5.53 39.68-5.53v-80.691zM384 819.2c-211.763 0-384-172.237-384-384s172.237-384 384-384 384 172.237 384 384-172.237 384-384 384zM384 102.4c-183.501 0-332.8 149.299-332.8 332.8s149.299 332.8 332.8 332.8 332.8-149.299 332.8-332.8-149.299-332.8-332.8-332.8z" horiz-adv-x="768" />
<glyph unicode="&#xe67b;" d="M558.080 568.32l-40.96 40.96-133.12-138.24-133.12 138.24-40.96-40.96 138.24-133.12-138.24-133.12 40.96-40.96 133.12 138.24 133.12-138.24 40.96 40.96-138.24 133.12zM384 819.2c-209.92 0-384-174.080-384-384s174.080-384 384-384 384 174.080 384 384-174.080 384-384 384zM384 102.4c-184.32 0-332.8 148.48-332.8 332.8s148.48 332.8 332.8 332.8 332.8-148.48 332.8-332.8-148.48-332.8-332.8-332.8z" horiz-adv-x="768" />
<glyph unicode="&#xe67c;" d="M650.24 588.8h-128l-20.48-76.8h-71.68l122.88 358.4h76.8l122.88-358.4h-71.68l-30.72 76.8zM542.72 645.12h92.16l-46.080 138.24-46.080-138.24zM563.2 128h153.6v-76.8h-256v51.2l153.6 230.4h-153.6v76.8h256v-51.2l-153.6-230.4zM153.6 148.48v624.64l66.56-66.56 35.84 35.84-128 128-128-128 35.84-35.84 66.56 66.56v-624.64l-66.56 66.56-35.84-35.84 128-128 128 128-35.84 35.84z" horiz-adv-x="768" />
<glyph unicode="&#xe67d;" d="M768 870.4h-716.8c-28.262 0-51.2-22.938-51.2-51.2v-512c0-28.262 22.938-51.2 51.2-51.2h307.2c0 0 0-40.55 0-102.4s-153.6-23.91-153.6-102.4h409.6c0 75.52-153.6 42.906-153.6 102.4s0 102.4 0 102.4h307.2c28.262 0 51.2 22.938 51.2 51.2v512c0 28.262-22.938 51.2-51.2 51.2zM768 307.2h-716.8v512h716.8v-512z" horiz-adv-x="819" />
<glyph unicode="&#xe67e;" d="M768 676.198l-194.202 194.202h-317.798v-153.6h-256v-665.6h512v153.6h256v471.398zM563.2 808.602l143.002-143.002h-143.002v143.002zM307.2 655.002l143.002-143.002h-143.002v143.002zM460.8 102.4h-409.6v563.2h204.8v-204.8h204.8v-358.4zM716.8 256h-204.8v266.598l-194.202 194.202h-10.598v102.4h204.8v-204.8h204.8v-358.4z" horiz-adv-x="768" />
</font>
</defs>
</svg>
